<?xml version="1.0" encoding="UTF-8" ?>
<!DOCTYPE svg PUBLIC "-//W3C//DTD SVG 1.1//EN" "http://www.w3.org/Graphics/SVG/1.1/DTD/svg11.dtd">
<svg width="299pt" height="218pt" viewBox="0 0 299 218" version="1.1" xmlns="http://www.w3.org/2000/svg">
<g id="#fefefcff">
<path fill="#fefefc" opacity="1.00" d=" M 97.10 84.11 C 101.52 81.85 106.75 82.05 111.53 82.72 C 114.34 83.37 117.66 84.44 118.71 87.45 C 126.25 104.08 133.29 120.95 139.54 138.11 C 140.82 140.70 138.85 143.45 136.28 144.05 C 132.45 144.92 128.36 145.13 124.52 144.25 C 120.33 142.57 117.88 138.20 113.56 136.71 C 109.07 135.28 103.96 134.96 99.52 136.75 C 95.10 138.60 91.98 142.65 87.41 144.22 C 83.20 145.29 78.77 144.76 74.70 143.37 C 62.16 144.48 49.55 144.69 36.96 144.26 C 34.79 144.11 32.39 143.76 30.82 142.09 C 29.57 140.33 29.84 138.05 29.75 136.02 C 29.74 120.33 29.29 104.62 29.89 88.93 C 29.65 85.88 32.06 83.33 35.11 83.30 C 39.62 83.19 44.46 82.51 48.72 84.29 C 51.47 85.31 50.66 88.69 50.88 90.97 C 51.29 102.55 49.20 114.39 52.19 125.75 C 53.15 129.10 56.86 130.40 60.03 130.26 C 65.32 130.20 70.78 129.78 75.76 131.96 C 80.70 118.64 86.18 105.54 91.68 92.45 C 93.12 89.49 93.90 85.72 97.10 84.11 M 104.37 106.19 C 101.52 109.01 100.03 113.03 99.64 116.97 C 99.59 119.77 100.43 123.37 103.48 124.28 C 105.67 124.86 108.06 124.87 110.26 124.30 C 112.79 122.84 114.87 119.98 114.27 116.93 C 113.71 112.85 112.36 108.44 108.85 105.93 C 107.61 104.94 105.52 105.16 104.37 106.19 Z" />
<path fill="#fefefc" opacity="1.00" d=" M 180.56 83.73 C 185.19 82.06 190.21 83.01 194.97 83.51 C 197.68 84.01 198.98 87.37 197.74 89.74 C 191.43 106.22 184.65 122.54 178.05 138.91 C 176.74 142.66 172.47 143.83 168.95 144.31 C 164.42 144.70 159.58 144.53 155.44 142.47 C 153.39 141.47 152.62 139.20 151.80 137.25 C 145.31 120.52 138.67 103.84 132.55 86.98 C 134.16 82.28 139.98 82.63 144.03 82.38 C 147.18 82.48 151.74 82.42 152.99 86.02 C 156.03 94.34 158.48 102.88 161.68 111.14 C 162.39 112.59 163.21 114.68 165.14 114.64 C 167.29 114.82 168.90 112.73 169.44 110.87 C 171.53 103.36 174.30 96.07 176.81 88.69 C 177.42 86.68 178.53 84.61 180.56 83.73 Z" />
<path fill="#fefefc" opacity="1.00" d=" M 218.45 82.75 C 223.12 81.79 228.17 81.51 232.71 83.21 C 235.29 84.17 236.53 86.81 237.63 89.14 C 244.84 104.72 250.95 120.78 257.12 136.80 C 257.71 138.46 258.49 140.58 257.24 142.14 C 255.52 144.35 252.48 144.34 249.95 144.45 C 246.94 144.44 243.75 144.73 240.92 143.51 C 237.75 140.97 234.96 137.70 230.93 136.48 C 225.76 134.98 219.61 134.63 215.01 137.88 C 211.15 140.31 207.95 144.53 202.99 144.53 C 199.12 144.67 194.82 144.66 191.53 142.36 C 190.01 141.41 190.39 139.48 190.95 138.08 C 198.13 121.39 204.86 104.50 211.87 87.74 C 212.81 84.88 215.70 83.38 218.45 82.75 M 223.40 105.44 C 218.74 107.99 216.52 114.27 217.19 119.46 C 217.81 126.94 231.38 126.45 231.70 119.06 C 232.01 114.33 230.12 109.48 226.60 106.29 C 225.82 105.31 224.54 105.16 223.40 105.44 Z" />
</g>
<g id="#ff360cff">
<path fill="#ff360c" opacity="1.00" d=" M 51.66 19.71 C 55.00 17.22 58.59 15.07 62.30 13.18 C 56.33 20.22 54.52 30.82 58.88 39.13 C 62.24 46.17 69.64 50.23 77.01 51.81 C 90.37 54.78 104.33 53.05 117.42 49.57 C 133.44 44.48 150.22 41.89 167.01 41.35 C 192.34 40.50 218.51 43.22 241.58 54.36 C 258.64 62.95 274.09 77.29 279.50 96.09 C 284.48 113.32 279.27 131.96 269.38 146.44 C 261.18 158.52 248.38 166.55 235.22 172.32 C 212.72 182.02 188.23 186.12 163.93 187.97 C 140.26 189.67 116.32 188.57 93.03 183.80 C 74.81 180.10 56.72 174.26 40.99 164.14 C 26.49 154.94 14.37 141.26 9.18 124.69 C 3.08 106.41 4.88 86.10 12.44 68.53 C 20.77 49.11 34.75 32.29 51.66 19.71 M 97.10 84.11 C 93.90 85.72 93.12 89.49 91.68 92.45 C 86.18 105.54 80.70 118.64 75.76 131.96 C 70.78 129.78 65.32 130.20 60.03 130.26 C 56.86 130.40 53.15 129.10 52.19 125.75 C 49.20 114.39 51.29 102.55 50.88 90.97 C 50.66 88.69 51.47 85.31 48.72 84.29 C 44.46 82.51 39.62 83.19 35.11 83.30 C 32.06 83.33 29.65 85.88 29.89 88.93 C 29.29 104.62 29.74 120.33 29.75 136.02 C 29.84 138.05 29.57 140.33 30.82 142.09 C 32.39 143.76 34.79 144.11 36.96 144.26 C 49.55 144.69 62.16 144.48 74.70 143.37 C 78.77 144.76 83.20 145.29 87.41 144.22 C 91.98 142.65 95.10 138.60 99.52 136.75 C 103.96 134.96 109.07 135.28 113.56 136.71 C 117.88 138.20 120.33 142.57 124.52 144.25 C 128.36 145.13 132.45 144.92 136.28 144.05 C 138.85 143.45 140.82 140.70 139.54 138.11 C 133.29 120.95 126.25 104.08 118.71 87.45 C 117.66 84.44 114.34 83.37 111.53 82.72 C 106.75 82.05 101.52 81.85 97.10 84.11 M 180.56 83.73 C 178.53 84.61 177.42 86.68 176.81 88.69 C 174.30 96.07 171.53 103.36 169.44 110.87 C 168.90 112.73 167.29 114.82 165.14 114.64 C 163.21 114.68 162.39 112.59 161.68 111.14 C 158.48 102.88 156.03 94.34 152.99 86.02 C 151.74 82.42 147.18 82.48 144.03 82.38 C 139.98 82.63 134.16 82.28 132.55 86.98 C 138.67 103.84 145.31 120.52 151.80 137.25 C 152.62 139.20 153.39 141.47 155.44 142.47 C 159.58 144.53 164.42 144.70 168.95 144.31 C 172.47 143.83 176.74 142.66 178.05 138.91 C 184.65 122.54 191.43 106.22 197.74 89.74 C 198.98 87.37 197.68 84.01 194.97 83.51 C 190.21 83.01 185.19 82.06 180.56 83.73 M 218.45 82.75 C 215.70 83.38 212.81 84.88 211.87 87.74 C 204.86 104.50 198.13 121.39 190.95 138.08 C 190.39 139.48 190.01 141.41 191.53 142.36 C 194.82 144.66 199.12 144.67 202.99 144.53 C 207.95 144.53 211.15 140.31 215.01 137.88 C 219.61 134.63 225.76 134.98 230.93 136.48 C 234.96 137.70 237.75 140.97 240.92 143.51 C 243.75 144.73 246.94 144.44 249.95 144.45 C 252.48 144.34 255.52 144.35 257.24 142.14 C 258.49 140.58 257.71 138.46 257.12 136.80 C 250.95 120.78 244.84 104.72 237.63 89.14 C 236.53 86.81 235.29 84.17 232.71 83.21 C 228.17 81.51 223.12 81.79 218.45 82.75 Z" />
<path fill="#ff360c" opacity="1.00" d=" M 223.40 105.44 C 224.54 105.16 225.82 105.31 226.60 106.29 C 230.12 109.48 232.01 114.33 231.70 119.06 C 231.38 126.45 217.81 126.94 217.19 119.46 C 216.52 114.27 218.74 107.99 223.40 105.44 Z" />
<path fill="#ff360c" opacity="1.00" d=" M 104.37 106.19 C 105.52 105.16 107.61 104.94 108.85 105.93 C 112.36 108.44 113.71 112.85 114.27 116.93 C 114.87 119.98 112.79 122.84 110.26 124.30 C 108.06 124.87 105.67 124.86 103.48 124.28 C 100.43 123.37 99.59 119.77 99.64 116.97 C 100.03 113.03 101.52 109.01 104.37 106.19 Z" />
</g>
</svg>
